<mxfile host="app.diagrams.net" modified="2024-05-17T15:51:19.721Z" agent="Mozilla/5.0 (Windows NT 10.0; Win64; x64) AppleWebKit/537.36 (KHTML, like Gecko) Chrome/124.0.0.0 Safari/537.36" etag="7Bkc2dCHh4ugot_lPPA3" version="24.4.4" type="github">
  <diagram name="Seite-1" id="ijxSJY4iW0NVXkuyTtQ2">
    <mxGraphModel dx="1744" dy="883" grid="1" gridSize="10" guides="1" tooltips="1" connect="1" arrows="1" fold="1" page="1" pageScale="1" pageWidth="580" pageHeight="780" math="0" shadow="0">
      <root>
        <mxCell id="0" />
        <mxCell id="1" parent="0" />
        <mxCell id="tlcZT1eQ2LUNHYH_i1Qd-1" value="Schicht anlegen" style="shape=umlFrame;whiteSpace=wrap;html=1;pointerEvents=0;width=110;height=30;" vertex="1" parent="1">
          <mxGeometry x="30" y="30" width="520" height="720" as="geometry" />
        </mxCell>
        <mxCell id="tlcZT1eQ2LUNHYH_i1Qd-18" style="edgeStyle=orthogonalEdgeStyle;rounded=0;orthogonalLoop=1;jettySize=auto;html=1;entryX=0.5;entryY=0;entryDx=0;entryDy=0;endArrow=open;endFill=0;" edge="1" parent="1" target="tlcZT1eQ2LUNHYH_i1Qd-7">
          <mxGeometry relative="1" as="geometry">
            <mxPoint x="236.25" y="90" as="sourcePoint" />
          </mxGeometry>
        </mxCell>
        <mxCell id="tlcZT1eQ2LUNHYH_i1Qd-2" value="" style="ellipse;html=1;shape=startState;fillColor=#000000;strokeColor=#000000;" vertex="1" parent="1">
          <mxGeometry x="221.25" y="60" width="30" height="30" as="geometry" />
        </mxCell>
        <mxCell id="tlcZT1eQ2LUNHYH_i1Qd-16" style="edgeStyle=orthogonalEdgeStyle;rounded=0;orthogonalLoop=1;jettySize=auto;html=1;entryX=0.5;entryY=0;entryDx=0;entryDy=0;endArrow=open;endFill=0;" edge="1" parent="1" source="tlcZT1eQ2LUNHYH_i1Qd-6" target="tlcZT1eQ2LUNHYH_i1Qd-11">
          <mxGeometry relative="1" as="geometry" />
        </mxCell>
        <mxCell id="tlcZT1eQ2LUNHYH_i1Qd-6" value="Start festlegen" style="rounded=1;whiteSpace=wrap;html=1;" vertex="1" parent="1">
          <mxGeometry x="188.75" y="240" width="95" height="50" as="geometry" />
        </mxCell>
        <mxCell id="tlcZT1eQ2LUNHYH_i1Qd-8" style="edgeStyle=orthogonalEdgeStyle;rounded=0;orthogonalLoop=1;jettySize=auto;html=1;entryX=0.5;entryY=0;entryDx=0;entryDy=0;endArrow=open;endFill=0;" edge="1" parent="1" source="tlcZT1eQ2LUNHYH_i1Qd-7" target="tlcZT1eQ2LUNHYH_i1Qd-6">
          <mxGeometry relative="1" as="geometry" />
        </mxCell>
        <mxCell id="tlcZT1eQ2LUNHYH_i1Qd-22" style="edgeStyle=orthogonalEdgeStyle;rounded=0;orthogonalLoop=1;jettySize=auto;html=1;entryX=0.5;entryY=0;entryDx=0;entryDy=0;endArrow=open;endFill=0;" edge="1" parent="1" source="tlcZT1eQ2LUNHYH_i1Qd-7" target="tlcZT1eQ2LUNHYH_i1Qd-21">
          <mxGeometry relative="1" as="geometry" />
        </mxCell>
        <mxCell id="tlcZT1eQ2LUNHYH_i1Qd-7" value="" style="rhombus;whiteSpace=wrap;html=1;" vertex="1" parent="1">
          <mxGeometry x="211.25" y="130" width="50" height="50" as="geometry" />
        </mxCell>
        <mxCell id="tlcZT1eQ2LUNHYH_i1Qd-10" value="täglich&amp;nbsp;&lt;div&gt;gleich?&lt;/div&gt;" style="text;html=1;align=center;verticalAlign=middle;resizable=0;points=[];autosize=1;strokeColor=none;fillColor=none;" vertex="1" parent="1">
          <mxGeometry x="170" y="103" width="60" height="40" as="geometry" />
        </mxCell>
        <mxCell id="tlcZT1eQ2LUNHYH_i1Qd-14" style="edgeStyle=orthogonalEdgeStyle;rounded=0;orthogonalLoop=1;jettySize=auto;html=1;entryX=0.5;entryY=0;entryDx=0;entryDy=0;endArrow=open;endFill=0;" edge="1" parent="1" source="tlcZT1eQ2LUNHYH_i1Qd-11" target="tlcZT1eQ2LUNHYH_i1Qd-13">
          <mxGeometry relative="1" as="geometry" />
        </mxCell>
        <mxCell id="tlcZT1eQ2LUNHYH_i1Qd-11" value="Ende festlegen" style="rounded=1;whiteSpace=wrap;html=1;" vertex="1" parent="1">
          <mxGeometry x="188.75" y="330" width="95" height="50" as="geometry" />
        </mxCell>
        <mxCell id="tlcZT1eQ2LUNHYH_i1Qd-12" value="Zuschlagsf&lt;span style=&quot;background-color: initial;&quot;&gt;enster festlegen&lt;/span&gt;" style="rounded=1;whiteSpace=wrap;html=1;" vertex="1" parent="1">
          <mxGeometry x="180" y="510" width="112.5" height="50" as="geometry" />
        </mxCell>
        <mxCell id="tlcZT1eQ2LUNHYH_i1Qd-15" style="edgeStyle=orthogonalEdgeStyle;rounded=0;orthogonalLoop=1;jettySize=auto;html=1;entryX=0.5;entryY=0;entryDx=0;entryDy=0;endArrow=open;endFill=0;" edge="1" parent="1" source="tlcZT1eQ2LUNHYH_i1Qd-13" target="tlcZT1eQ2LUNHYH_i1Qd-12">
          <mxGeometry relative="1" as="geometry" />
        </mxCell>
        <mxCell id="tlcZT1eQ2LUNHYH_i1Qd-24" style="edgeStyle=orthogonalEdgeStyle;rounded=0;orthogonalLoop=1;jettySize=auto;html=1;endArrow=open;endFill=0;exitX=0;exitY=0.5;exitDx=0;exitDy=0;" edge="1" parent="1" source="tlcZT1eQ2LUNHYH_i1Qd-13">
          <mxGeometry relative="1" as="geometry">
            <mxPoint x="120" y="620" as="targetPoint" />
            <Array as="points">
              <mxPoint x="120" y="445" />
            </Array>
          </mxGeometry>
        </mxCell>
        <mxCell id="tlcZT1eQ2LUNHYH_i1Qd-13" value="" style="rhombus;whiteSpace=wrap;html=1;" vertex="1" parent="1">
          <mxGeometry x="211.25" y="420" width="50" height="50" as="geometry" />
        </mxCell>
        <mxCell id="tlcZT1eQ2LUNHYH_i1Qd-33" style="edgeStyle=orthogonalEdgeStyle;rounded=0;orthogonalLoop=1;jettySize=auto;html=1;entryX=0.5;entryY=0;entryDx=0;entryDy=0;" edge="1" parent="1" target="tlcZT1eQ2LUNHYH_i1Qd-32">
          <mxGeometry relative="1" as="geometry">
            <mxPoint x="297" y="630" as="sourcePoint" />
          </mxGeometry>
        </mxCell>
        <mxCell id="tlcZT1eQ2LUNHYH_i1Qd-19" value="" style="shape=line;html=1;strokeWidth=6;strokeColor=#000000;fillColor=#000000;" vertex="1" parent="1">
          <mxGeometry x="90" y="620" width="370" height="10" as="geometry" />
        </mxCell>
        <mxCell id="tlcZT1eQ2LUNHYH_i1Qd-21" value="Individuelle Schicht erstellen" style="rounded=1;whiteSpace=wrap;html=1;" vertex="1" parent="1">
          <mxGeometry x="342.5" y="310" width="150" height="50" as="geometry" />
        </mxCell>
        <mxCell id="tlcZT1eQ2LUNHYH_i1Qd-23" value="Zuschläge?" style="text;html=1;align=center;verticalAlign=middle;resizable=0;points=[];autosize=1;strokeColor=none;fillColor=none;" vertex="1" parent="1">
          <mxGeometry x="251.25" y="410" width="90" height="30" as="geometry" />
        </mxCell>
        <mxCell id="tlcZT1eQ2LUNHYH_i1Qd-25" style="edgeStyle=orthogonalEdgeStyle;rounded=0;orthogonalLoop=1;jettySize=auto;html=1;entryX=0.359;entryY=0.233;entryDx=0;entryDy=0;entryPerimeter=0;endArrow=open;endFill=0;" edge="1" parent="1" source="tlcZT1eQ2LUNHYH_i1Qd-12">
          <mxGeometry relative="1" as="geometry">
            <mxPoint x="235.71624999999995" y="622.3299999999999" as="targetPoint" />
          </mxGeometry>
        </mxCell>
        <mxCell id="tlcZT1eQ2LUNHYH_i1Qd-26" style="edgeStyle=orthogonalEdgeStyle;rounded=0;orthogonalLoop=1;jettySize=auto;html=1;endArrow=open;endFill=0;" edge="1" parent="1" source="tlcZT1eQ2LUNHYH_i1Qd-21">
          <mxGeometry relative="1" as="geometry">
            <mxPoint x="420" y="620" as="targetPoint" />
            <Array as="points">
              <mxPoint x="420" y="620" />
            </Array>
          </mxGeometry>
        </mxCell>
        <mxCell id="tlcZT1eQ2LUNHYH_i1Qd-29" value="[nein]" style="text;html=1;align=center;verticalAlign=middle;resizable=0;points=[];autosize=1;strokeColor=none;fillColor=none;" vertex="1" parent="1">
          <mxGeometry x="292.5" y="130" width="50" height="30" as="geometry" />
        </mxCell>
        <mxCell id="tlcZT1eQ2LUNHYH_i1Qd-30" value="[ja]" style="text;html=1;align=center;verticalAlign=middle;resizable=0;points=[];autosize=1;strokeColor=none;fillColor=none;" vertex="1" parent="1">
          <mxGeometry x="230" y="190" width="40" height="30" as="geometry" />
        </mxCell>
        <mxCell id="tlcZT1eQ2LUNHYH_i1Qd-32" value="" style="ellipse;html=1;shape=endState;fillColor=strokeColor;" vertex="1" parent="1">
          <mxGeometry x="282" y="680" width="30" height="30" as="geometry" />
        </mxCell>
        <mxCell id="tlcZT1eQ2LUNHYH_i1Qd-34" value="[ja]" style="text;html=1;align=center;verticalAlign=middle;resizable=0;points=[];autosize=1;strokeColor=none;fillColor=none;" vertex="1" parent="1">
          <mxGeometry x="230" y="470" width="40" height="30" as="geometry" />
        </mxCell>
        <mxCell id="tlcZT1eQ2LUNHYH_i1Qd-35" value="[nein]" style="text;html=1;align=center;verticalAlign=middle;resizable=0;points=[];autosize=1;strokeColor=none;fillColor=none;" vertex="1" parent="1">
          <mxGeometry x="130" y="420" width="50" height="30" as="geometry" />
        </mxCell>
      </root>
    </mxGraphModel>
  </diagram>
</mxfile>
